%TF.GenerationSoftware,Altium Limited,Altium Designer,24.8.2 (39)*%
G04 Layer_Physical_Order=1*
G04 Layer_Color=255*
%FSLAX45Y45*%
%MOMM*%
%TF.SameCoordinates,3F970B71-A51D-49A4-9664-CA3C3BE6B83D*%
%TF.FilePolarity,Positive*%
%TF.FileFunction,Copper,L1,Top,Signal*%
%TF.Part,Single*%
G01*
G75*
%TA.AperFunction,SMDPad,CuDef*%
%ADD10R,1.55000X1.50000*%
%ADD11R,1.00000X0.66000*%
%ADD12R,1.70000X0.60000*%
%ADD13R,2.70000X1.00000*%
%TA.AperFunction,Conductor*%
%ADD14C,0.50000*%
%TA.AperFunction,ViaPad*%
%ADD15C,0.70000*%
D10*
X10400000Y8050000D02*
D03*
Y7870000D02*
D03*
X11250000D02*
D03*
Y8050000D02*
D03*
D11*
X11000000Y8090000D02*
D03*
Y7900000D02*
D03*
X10740000D02*
D03*
Y7995000D02*
D03*
Y8090000D02*
D03*
D12*
X11722500Y8062500D02*
D03*
Y7937500D02*
D03*
X9950000Y7925000D02*
D03*
Y8050000D02*
D03*
D13*
X12042500Y8247500D02*
D03*
Y7752500D02*
D03*
X9630000Y7740000D02*
D03*
Y8235000D02*
D03*
D14*
X10739800Y7994800D02*
X10740000Y7995000D01*
X10605600Y7994800D02*
X10739800D01*
X10605400Y7994600D02*
X10605600Y7994800D01*
X10400000Y7720000D02*
Y7870000D01*
X11250000Y7710000D02*
Y7870000D01*
X11722912Y8062088D02*
X11882500D01*
X11894588Y8050000D01*
X11722500Y8062500D02*
X11722912Y8062088D01*
X11894588Y8050000D02*
X11900000D01*
X9950000Y7930000D02*
X9952500Y7927500D01*
X9950000Y7925000D02*
X10119588D01*
X10144588Y7900000D02*
X10150000D01*
X10119588Y7925000D02*
X10144588Y7900000D01*
X9950000Y8050000D02*
X10400000D01*
X10540026D01*
X10580027Y8090000D01*
X10740000Y7900000D02*
X10748000Y7908000D01*
X10807277D01*
X10840400Y7941124D01*
Y8048876D01*
X10748000Y8082000D02*
X10807277D01*
X10740000Y8090000D02*
X10748000Y8082000D01*
X10807277D02*
X10840400Y8048876D01*
X11250000Y8050000D02*
X11428750D01*
X11541250Y7937500D01*
X11722500D01*
X11000000Y8090000D02*
X11017000D01*
X11057000Y8050000D02*
X11250000D01*
X11017000Y8090000D02*
X11057000Y8050000D01*
X10580027Y8090000D02*
X10740000D01*
D15*
X11900000Y8050000D02*
D03*
X10150000Y7900000D02*
D03*
X10605400Y7994600D02*
D03*
X10400000Y7720000D02*
D03*
X11250000Y7710000D02*
D03*
%TF.MD5,18c09edbb299cd118c94d164b234e032*%
M02*
