%TF.GenerationSoftware,Altium Limited,Altium Designer,24.8.2 (39)*%
G04 Layer_Color=8388736*
%FSLAX45Y45*%
%MOMM*%
%TF.SameCoordinates,3F970B71-A51D-49A4-9664-CA3C3BE6B83D*%
%TF.FilePolarity,Negative*%
%TF.FileFunction,Soldermask,Top*%
%TF.Part,Single*%
G01*
G75*
%TA.AperFunction,SMDPad,CuDef*%
%ADD11R,1.00000X0.66000*%
%ADD12R,1.70000X0.60000*%
%ADD13R,2.70000X1.00000*%
%ADD19R,1.75320X1.70320*%
%TA.AperFunction,ViaPad*%
%ADD20C,0.90320*%
D11*
X11000000Y8090000D02*
D03*
Y7900000D02*
D03*
X10740000D02*
D03*
Y7995000D02*
D03*
Y8090000D02*
D03*
D12*
X11722500Y8062500D02*
D03*
Y7937500D02*
D03*
X9950000Y7925000D02*
D03*
Y8050000D02*
D03*
D13*
X12042500Y8247500D02*
D03*
Y7752500D02*
D03*
X9630000Y7740000D02*
D03*
Y8235000D02*
D03*
D19*
X10400000Y8050000D02*
D03*
Y7870000D02*
D03*
X11250000D02*
D03*
Y8050000D02*
D03*
D20*
X11900000D02*
D03*
X10150000Y7900000D02*
D03*
X10605400Y7994600D02*
D03*
X10400000Y7720000D02*
D03*
X11250000Y7710000D02*
D03*
%TF.MD5,ce99acf75b3386479cba4dbaf8aad9b2*%
M02*
